<?xml version="1.0" encoding="UTF-8" standalone="no"?>
<!DOCTYPE svg PUBLIC "-//W3C//DTD SVG 1.1//EN" "http://www.w3.org/Graphics/SVG/1.1/DTD/svg11.dtd">
<svg version="1.1" xmlns="http://www.w3.org/2000/svg" xmlns:xlink="http://www.w3.org/1999/xlink" preserveAspectRatio="xMidYMid meet" viewBox="140.0873786407767 118.707950925364 99.06796116504856 100.38834951456315" width="95.07" height="96.39"><defs><path d="M236.16 167.9C236.16 194.5 214.86 216.1 188.62 216.1C162.39 216.1 141.09 194.5 141.09 167.9C141.09 141.3 162.39 119.71 188.62 119.71C214.86 119.71 236.16 141.3 236.16 167.9Z" id="d29qqN4dKv"></path><path d="M214.1 167.9C214.1 181.6 202.68 192.72 188.62 192.72C174.56 192.72 163.15 181.6 163.15 167.9C163.15 154.21 174.56 143.09 188.62 143.09C202.68 143.09 214.1 154.21 214.1 167.9Z" id="a3L6NTAdXB"></path><path d="" id="j1AvCLRSU"></path><path d="M193.9 135.17L198.93 141.2L188.88 141.2L178.83 141.2L183.85 135.17L188.88 129.14L193.9 135.17Z" id="cyYJdXwsq"></path><path d="M193.9 200.76L198.93 194.73L188.88 194.73L178.83 194.73L183.85 200.76L188.88 206.79L193.9 200.76Z" id="d1cOuDxOxT"></path><path d="M155.66 172.93L161.69 177.95L161.69 167.9L161.69 157.85L155.66 162.88L149.63 167.9L155.66 172.93Z" id="afOc5sytA"></path><path d="M221.63 172.93L215.6 177.95L215.6 167.9L215.6 157.85L221.63 162.88L227.66 167.9L221.63 172.93Z" id="jGCaj6AnT"></path><path d="M161.43 148.93L162.81 156.65L169.27 148.95L175.73 141.26L167.89 141.23L160.04 141.2L161.43 148.93Z" id="a1dk15466d"></path><path d="M209.49 194.7L201.64 194.67L208.1 186.98L214.56 179.28L215.95 187L217.34 194.73L209.49 194.7Z" id="d5blDwzmla"></path><path d="M209.49 141.23L201.64 141.26L208.1 148.95L214.56 156.65L215.95 148.93L217.34 141.2L209.49 141.23Z" id="a72Ph1bbwc"></path><path d="M166.72 194.7L174.57 194.67L168.1 186.98L161.64 179.28L160.26 187L158.87 194.73L166.72 194.7Z" id="b8bW8zdwW"></path></defs><g><g><use xlink:href="#d29qqN4dKv" opacity="1" fill="#239bad" fill-opacity="1"></use></g><g><use xlink:href="#a3L6NTAdXB" opacity="1" fill="#d58248" fill-opacity="1"></use></g><g><g><use xlink:href="#j1AvCLRSU" opacity="1" fill-opacity="0" stroke="#000000" stroke-width="1" stroke-opacity="1"></use></g></g><g><use xlink:href="#cyYJdXwsq" opacity="1" fill="#debc4d" fill-opacity="1"></use></g><g><use xlink:href="#d1cOuDxOxT" opacity="1" fill="#debc4d" fill-opacity="1"></use></g><g><use xlink:href="#afOc5sytA" opacity="1" fill="#debc4d" fill-opacity="1"></use></g><g><use xlink:href="#jGCaj6AnT" opacity="1" fill="#debc4d" fill-opacity="1"></use></g><g><use xlink:href="#a1dk15466d" opacity="1" fill="#debc4d" fill-opacity="1"></use></g><g><use xlink:href="#d5blDwzmla" opacity="1" fill="#debc4d" fill-opacity="1"></use></g><g><use xlink:href="#a72Ph1bbwc" opacity="1" fill="#debc4d" fill-opacity="1"></use></g><g><use xlink:href="#b8bW8zdwW" opacity="1" fill="#debc4d" fill-opacity="1"></use></g></g></svg>