<?xml version="1.0" encoding="UTF-8" standalone="no"?>
<!DOCTYPE svg PUBLIC "-//W3C//DTD SVG 1.1//EN" "http://www.w3.org/Graphics/SVG/1.1/DTD/svg11.dtd">
<svg version="1.1" xmlns="http://www.w3.org/2000/svg" xmlns:xlink="http://www.w3.org/1999/xlink" preserveAspectRatio="xMidYMid meet" viewBox="140.0873786407767 118.707950925364 99.06796116504856 100.38834951456315" width="95.07" height="96.39"><defs><path d="M236.16 167.9C236.16 194.5 214.86 216.1 188.62 216.1C162.39 216.1 141.09 194.5 141.09 167.9C141.09 141.3 162.39 119.71 188.62 119.71C214.86 119.71 236.16 141.3 236.16 167.9Z" id="c1jjIsw8VS"></path><path d="M181.43 149.37L181.12 150.58L180.89 151.82L180.75 153.08L180.7 154.37L180.75 155.66L180.89 156.92L181.12 158.16L181.43 159.37L181.83 160.55L182.31 161.69L182.86 162.8L183.49 163.86L184.2 164.89L184.97 165.86L185.8 166.79L186.7 167.67L187.65 168.49L188.66 169.26L189.73 169.97L190.84 170.61L192 171.19L193.2 171.7L194.45 172.14L195.73 172.51L197.04 172.8L198.39 173.01L199.76 173.14L201.17 173.18L202.57 173.14L203.94 173.01L205.29 172.8L206.6 172.51L207.88 172.14L209.13 171.7L210.33 171.19L211.49 170.61L212.6 169.97L213.67 169.26L213.56 170.49L213.38 171.76L213.13 173L212.81 174.22L212.43 175.41L211.98 176.58L211.47 177.71L210.91 178.82L210.28 179.89L209.6 180.93L208.87 181.93L208.08 182.9L207.24 183.82L206.36 184.7L205.43 185.54L204.45 186.34L203.43 187.08L202.38 187.78L201.28 188.42L200.15 189.01L198.98 189.55L197.78 190.03L196.55 190.46L195.29 190.82L194 191.12L192.69 191.36L191.35 191.53L190 191.63L188.62 191.67L187.25 191.63L185.89 191.53L184.55 191.36L183.24 191.12L181.96 190.82L180.7 190.46L179.46 190.03L178.26 189.55L177.1 189.01L175.96 188.42L174.87 187.78L173.81 187.08L172.79 186.34L171.82 185.54L170.89 184.7L170 183.82L169.16 182.9L168.38 181.93L167.64 180.93L166.96 179.89L166.34 178.82L165.77 177.71L165.26 176.58L164.81 175.41L164.43 174.22L164.11 173L163.86 171.76L163.68 170.49L163.57 169.21L163.53 167.9L163.57 166.6L163.68 165.31L163.86 164.05L164.11 162.81L164.43 161.59L164.81 160.39L165.26 159.23L165.77 158.09L166.34 156.98L166.96 155.91L167.64 154.87L168.38 153.87L169.16 152.91L170 151.98L170.89 151.1L171.82 150.26L172.79 149.47L173.81 148.72L174.87 148.03L175.96 147.38L177.1 146.79L178.26 146.25L179.46 145.77L180.7 145.35L181.96 144.98L183.24 144.68L183.68 144.6L183.49 144.87L182.86 145.94L182.31 147.05L181.83 148.19L181.83 148.19L181.43 149.37Z" id="a7loK2xwA"></path></defs><g><g><use xlink:href="#c1jjIsw8VS" opacity="1" fill="#2e3838" fill-opacity="1"></use></g><g><use xlink:href="#a7loK2xwA" opacity="1" fill="#ece38e" fill-opacity="1"></use></g></g></svg>